<svg width="177" height="59" viewBox="0 0 177 59" fill="none" xmlns="http://www.w3.org/2000/svg">
<path d="M31.481 36.743C29.5424 36.6769 28.0774 36.2253 27.086 35.3881C26.0947 34.529 25.3787 33.5707 24.9381 32.5132C24.4975 31.4337 24.2772 30.3432 24.2772 29.2417C24.2772 28.0962 24.4865 26.9947 24.905 25.9372C25.3456 24.8578 26.0616 23.8994 27.053 23.0623C28.0664 22.2031 29.3441 21.7625 30.8862 21.7405H41.5928C43.135 21.7625 44.4017 22.2031 45.393 23.0623C46.4064 23.8994 47.1224 24.8578 47.541 25.9372C47.9816 26.9947 48.2019 28.0962 48.2019 29.2417C48.2019 30.3432 47.9816 31.4337 47.541 32.5132C47.1004 33.5707 46.3844 34.529 45.393 35.3881C44.4017 36.2253 42.9367 36.6769 40.998 36.743H31.481ZM30.754 26.1685C30.3355 26.1685 29.972 26.3448 29.6635 26.6973C29.3551 27.0277 29.1238 27.4243 28.9696 27.8869C28.8374 28.3275 28.7713 28.7681 28.7713 29.2087C28.7713 29.6713 28.8374 30.134 28.9696 30.5966C29.1238 31.0372 29.3551 31.4337 29.6635 31.7862C29.972 32.1167 30.3355 32.2929 30.754 32.3149H41.725C42.1436 32.2929 42.5071 32.1167 42.8155 31.7862C43.1239 31.4337 43.3442 31.0372 43.4764 30.5966C43.6306 30.134 43.7077 29.6713 43.7077 29.2087C43.7077 28.7681 43.6306 28.3275 43.4764 27.8869C43.3442 27.4243 43.1239 27.0277 42.8155 26.6973C42.5071 26.3448 42.1436 26.1685 41.725 26.1685H30.754ZM62.5435 21.2448C63.689 21.2448 64.8126 21.377 65.9141 21.6414C67.0376 21.9057 68.1061 22.3023 69.1195 22.831C70.1328 23.3377 71.0251 24.0206 71.7961 24.8798C72.5892 25.739 73.0188 26.7634 73.0849 27.953V29.3409V34.9916C72.9527 36.3134 72.2257 37.0294 70.9039 37.1395C70.2871 37.1395 69.7473 36.9413 69.2847 36.5447C68.8441 36.1261 68.6238 35.6084 68.6238 34.9916V33.5376V28.9774C68.5797 28.2944 68.3154 27.7327 67.8307 27.2921C67.3681 26.8294 66.8393 26.4659 66.2445 26.2016C65.6717 25.9372 65.0659 25.739 64.427 25.6068C63.8102 25.4746 63.1823 25.4085 62.5435 25.4085C61.9046 25.4085 61.2657 25.4746 60.6269 25.6068C60.01 25.739 59.4042 25.9372 58.8094 26.2016C58.2366 26.4659 57.7079 26.8294 57.2232 27.2921C56.7606 27.7327 56.5072 28.2944 56.4632 28.9774V33.5376V34.9916C56.353 36.3134 55.637 37.0294 54.3152 37.1395C53.6984 37.1395 53.1587 36.9413 52.696 36.5447C52.2554 36.1261 52.0351 35.6084 52.0351 34.9916V29.3409V27.953C52.1012 26.7634 52.5198 25.739 53.2908 24.8798C54.0619 24.0206 54.9541 23.3377 55.9675 22.831C56.9809 22.3023 58.0383 21.9057 59.1398 21.6414C60.2634 21.377 61.3979 21.2448 62.5435 21.2448ZM87.823 21.2448C88.9686 21.2448 90.0921 21.377 91.1936 21.6414C92.3172 21.9057 93.3856 22.3023 94.399 22.831C95.4124 23.3377 96.3046 24.0206 97.0757 24.8798C97.8687 25.739 98.2983 26.7634 98.3644 27.953V29.3409V34.9916C98.2322 36.3134 97.5052 37.0294 96.1834 37.1395C95.5666 37.1395 95.0269 36.9413 94.5642 36.5447C94.1236 36.1261 93.9033 35.6084 93.9033 34.9916V33.5376V28.9774C93.8593 28.2944 93.5949 27.7327 93.1102 27.2921C92.6476 26.8294 92.1189 26.4659 91.5241 26.2016C90.9513 25.9372 90.3455 25.739 89.7066 25.6068C89.0897 25.4746 88.4619 25.4085 87.823 25.4085C87.1841 25.4085 86.5453 25.4746 85.9064 25.6068C85.2896 25.739 84.6837 25.9372 84.0889 26.2016C83.5161 26.4659 82.9874 26.8294 82.5027 27.2921C82.0401 27.7327 81.7868 28.2944 81.7427 28.9774V33.5376V34.9916C81.6326 36.3134 80.9166 37.0294 79.5948 37.1395C78.9779 37.1395 78.4382 36.9413 77.9756 36.5447C77.535 36.1261 77.3147 35.6084 77.3147 34.9916V29.3409V27.953C77.3807 26.7634 77.7993 25.739 78.5704 24.8798C79.3414 24.0206 80.2336 23.3377 81.247 22.831C82.2604 22.3023 83.3179 21.9057 84.4194 21.6414C85.5429 21.377 86.6775 21.2448 87.823 21.2448ZM109.335 36.743C107.397 36.6769 105.932 36.2253 104.94 35.3881C103.949 34.529 103.233 33.5707 102.792 32.5132C102.352 31.4337 102.132 30.3432 102.132 29.2417C102.132 28.0962 102.341 26.9947 102.759 25.9372C103.2 24.8578 103.916 23.8994 104.907 23.0623C105.921 22.2031 107.198 21.7625 108.741 21.7405H121.298C121.915 21.7405 122.432 21.9498 122.851 22.3683C123.291 22.7649 123.512 23.2496 123.512 23.8223C123.512 24.4171 123.291 24.9238 122.851 25.3424C122.432 25.739 121.915 25.9372 121.298 25.9372H108.939C108.454 25.9372 108.025 26.1025 107.65 26.4329C107.298 26.7634 107.033 27.1929 106.857 27.7217C106.703 28.2504 106.626 28.7681 106.626 29.2748C106.626 29.8255 106.703 30.3653 106.857 30.894C107.033 31.4227 107.298 31.8523 107.65 32.1828C108.025 32.4912 108.454 32.6564 108.939 32.6784H121.298C121.915 32.6784 122.432 32.8767 122.851 33.2733C123.291 33.6698 123.512 34.1434 123.512 34.6942C123.512 35.267 123.291 35.7516 122.851 36.1482C122.432 36.5447 121.915 36.743 121.298 36.743H109.335ZM123.115 29.1757C123.115 29.5942 122.928 29.9577 122.553 30.2661C122.223 30.5525 121.804 30.6957 121.298 30.6957H110.492C109.985 30.6957 109.556 30.5525 109.203 30.2661C108.851 29.9577 108.675 29.5942 108.675 29.1757C108.675 28.7791 108.851 28.4266 109.203 28.1182C109.556 27.8318 109.985 27.6886 110.492 27.6886H121.298C121.804 27.6886 122.234 27.8428 122.587 28.1513C122.939 28.4376 123.115 28.7791 123.115 29.1757ZM134.02 36.743C132.081 36.6769 130.616 36.2253 129.625 35.3881C128.634 34.529 127.918 33.5707 127.477 32.5132C127.037 31.4337 126.816 30.3432 126.816 29.2417C126.816 28.0962 127.026 26.9947 127.444 25.9372C127.885 24.8578 128.601 23.8994 129.592 23.0623C130.605 22.2031 131.883 21.7625 133.425 21.7405H145.982C146.599 21.7405 147.117 21.9608 147.536 22.4014C147.976 22.82 148.197 23.3377 148.197 23.9545C148.197 24.5714 147.976 25.1001 147.536 25.5407C147.117 25.9593 146.599 26.1685 145.982 26.1685H133.293C132.875 26.1685 132.511 26.3448 132.203 26.6973C131.894 27.0277 131.663 27.4243 131.509 27.8869C131.377 28.3275 131.31 28.7681 131.31 29.2087C131.31 29.6713 131.377 30.134 131.509 30.5966C131.663 31.0372 131.894 31.4337 132.203 31.7862C132.511 32.1167 132.875 32.2929 133.293 32.3149H145.982C146.599 32.3149 147.117 32.5352 147.536 32.9758C147.976 33.3944 148.197 33.9121 148.197 34.529C148.197 35.1458 147.976 35.6635 147.536 36.0821C147.117 36.5227 146.599 36.743 145.982 36.743H134.02ZM158.837 16.7176C159.454 16.7176 159.983 16.9269 160.423 17.3455C160.864 17.742 161.095 18.2487 161.117 18.8656V21.7405H172.353C172.969 21.7405 173.498 21.9498 173.939 22.3683C174.357 22.809 174.567 23.3377 174.567 23.9545C174.567 24.5714 174.346 25.1001 173.906 25.5407C173.487 25.9593 172.969 26.1685 172.353 26.1685H161.117V26.8294C161.095 27.7327 161.15 28.5698 161.282 29.3409C161.437 30.0899 161.789 30.7618 162.34 31.3566C162.891 31.9514 163.585 32.2709 164.422 32.3149H172.485C173.102 32.337 173.608 32.5683 174.005 33.0089C174.423 33.4495 174.633 33.9782 174.633 34.5951C174.611 35.1899 174.39 35.6966 173.972 36.1151C173.575 36.5117 173.08 36.721 172.485 36.743H163.298C161.756 36.6549 160.478 36.1372 159.465 35.1899C158.474 34.2205 157.758 33.0419 157.317 31.654C156.898 30.2661 156.678 28.7901 156.656 27.226V26.1685H152.856C152.239 26.1685 151.721 25.9482 151.303 25.5076C150.862 25.0891 150.642 24.5714 150.642 23.9545C150.642 23.3377 150.851 22.82 151.27 22.4014C151.71 21.9608 152.239 21.7405 152.856 21.7405H156.656V18.8656C156.678 18.2708 156.898 17.7751 157.317 17.3785C157.736 16.96 158.242 16.7397 158.837 16.7176Z" fill="white"/>
<path d="M28.0651 59C20.5124 58.7401 14.805 56.964 10.9428 53.6718C7.08064 50.2929 4.2913 46.5242 2.57478 42.3656C0.85826 38.1204 0 33.8319 0 29.5C0 24.9949 0.815347 20.663 2.44604 16.5044C4.16256 12.2592 6.9519 8.49046 10.8141 5.19824C14.7621 1.81938 19.74 0.0866373 25.7478 0H74.6686C77.0717 0 79.0886 0.866373 80.7193 2.59912C82.4359 4.24523 83.2941 6.2812 83.2941 8.70705C83.2941 11.1329 82.4359 13.2122 80.7193 14.9449C79.0886 16.591 77.0717 17.4141 74.6686 17.4141H25.2328C23.6021 17.4141 22.186 18.1072 20.9845 19.4934C19.7829 20.793 18.8817 22.3524 18.2809 24.1718C17.766 25.9046 17.5085 27.6373 17.5085 29.37C17.5085 31.1894 17.766 33.0088 18.2809 34.8282C18.8817 36.5609 19.7829 38.1204 20.9845 39.5066C22.186 40.8062 23.6021 41.4993 25.2328 41.5859H74.6686C77.0717 41.5859 79.0886 42.4523 80.7193 44.185C82.4359 45.8311 83.2941 47.8671 83.2941 50.293C83.2941 52.7188 82.4359 54.7548 80.7193 56.4009C79.0886 58.1336 77.0717 59 74.6686 59H28.0651Z" fill="white"/>
<path d="M97.8671 47.5387C97.8671 47.7297 97.7989 47.89 97.6625 48.0196C97.5329 48.1561 97.3725 48.2243 97.1815 48.2243H93.0882C92.9586 48.2311 92.8494 48.2618 92.7607 48.3164C92.6788 48.3642 92.6174 48.4221 92.5765 48.4904C92.5356 48.5518 92.5151 48.6166 92.5151 48.6848C92.5151 48.753 92.5356 48.8212 92.5765 48.8895C92.6174 48.9509 92.6788 49.0089 92.7607 49.0634C92.8494 49.1112 92.9586 49.1385 93.0882 49.1453H95.9944C96.472 49.1589 96.8643 49.2715 97.1713 49.483C97.4851 49.6877 97.7068 49.9264 97.8364 50.1993C97.9729 50.4654 98.0411 50.7383 98.0411 51.018C98.0411 51.2909 97.9729 51.5638 97.8364 51.8367C97.7 52.1027 97.4783 52.3415 97.1713 52.553C96.8643 52.7577 96.472 52.86 95.9944 52.86H95.933C95.8921 52.8668 95.8512 52.8702 95.8102 52.8702H91.942C91.751 52.8702 91.5873 52.8054 91.4508 52.6758C91.3212 52.5394 91.2564 52.3756 91.2564 52.1846C91.2564 51.9936 91.3246 51.8333 91.4611 51.7036C91.5907 51.5672 91.751 51.499 91.942 51.499H96.0558C96.1855 51.5058 96.2912 51.4819 96.3731 51.4273C96.4618 51.3728 96.5266 51.3114 96.5675 51.2431C96.6084 51.1681 96.6289 51.093 96.6289 51.018C96.6289 50.9702 96.6084 50.9054 96.5675 50.8236C96.5266 50.7349 96.4618 50.6632 96.3731 50.6087C96.2912 50.5541 96.1855 50.5234 96.0558 50.5166H93.1496C92.672 50.5029 92.2763 50.3938 91.9625 50.1891C91.6555 49.9844 91.4338 49.7525 91.2973 49.4932C91.1677 49.2272 91.1029 48.9577 91.1029 48.6848C91.1029 48.4187 91.1711 48.1561 91.3076 47.8968C91.444 47.6308 91.6657 47.3954 91.9727 47.1907C92.2797 46.9861 92.672 46.8769 93.1496 46.8633H93.211C93.2519 46.8564 93.2928 46.853 93.3338 46.853H97.1815C97.3725 46.853 97.5329 46.9212 97.6625 47.0577C97.7989 47.1873 97.8671 47.3476 97.8671 47.5387Z" fill="white"/>
<path d="M100.569 52.3483C100.528 52.7577 100.303 52.9794 99.8933 53.0135C99.7023 53.0135 99.5352 52.9521 99.3919 52.8293C99.2555 52.6997 99.1872 52.5394 99.1872 52.3483V47.5182C99.1941 47.3272 99.2657 47.1703 99.4021 47.0475C99.5386 46.9178 99.7023 46.853 99.8933 46.853H104.191C104.792 46.8735 105.245 47.0065 105.552 47.2521C105.859 47.4909 106.081 47.7638 106.218 48.0708C106.354 48.3778 106.422 48.6882 106.422 49.002C106.422 49.3295 106.354 49.6467 106.218 49.9537C106.088 50.2607 105.866 50.537 105.552 50.7826C105.245 51.0214 104.853 51.1374 104.376 51.1306H101.797C101.606 51.1306 101.445 51.0623 101.316 50.9259C101.179 50.7963 101.111 50.636 101.111 50.4449C101.111 50.2539 101.176 50.0936 101.306 49.964C101.442 49.8275 101.606 49.7593 101.797 49.7593H104.437C104.567 49.7593 104.672 49.7184 104.754 49.6365C104.843 49.5478 104.908 49.4489 104.949 49.3397C104.99 49.2238 105.01 49.1078 105.01 48.9918C105.01 48.8826 104.99 48.7735 104.949 48.6643C104.908 48.5484 104.843 48.4494 104.754 48.3676C104.672 48.2789 104.567 48.2311 104.437 48.2243H100.835C100.657 48.2311 100.569 48.3198 100.569 48.4904V52.3483Z" fill="white"/>
<path d="M113.002 46.853C113.35 46.8598 113.661 46.969 113.933 47.1805C114.206 47.392 114.425 47.6444 114.588 47.9378C114.759 48.2311 114.885 48.5415 114.967 48.869C115.049 49.1965 115.09 49.5308 115.09 49.8719C115.09 50.3221 115.018 50.7656 114.875 51.2022C114.739 51.632 114.51 52.014 114.189 52.3483C113.875 52.6826 113.48 52.8634 113.002 52.8907H109.431C108.953 52.8702 108.554 52.6929 108.234 52.3586C107.913 52.0243 107.684 51.6388 107.548 51.2022C107.418 50.7656 107.353 50.3221 107.353 49.8719C107.353 49.4216 107.422 48.9816 107.558 48.5518C107.695 48.1151 107.92 47.7297 108.234 47.3954C108.554 47.0543 108.953 46.8735 109.431 46.853H113.002ZM112.654 51.5194C112.914 51.5058 113.128 51.4103 113.299 51.2329C113.476 51.0487 113.603 50.8372 113.678 50.5984C113.753 50.3597 113.79 50.1175 113.79 49.8719C113.79 49.6263 113.749 49.3875 113.667 49.1555C113.592 48.9168 113.47 48.7053 113.299 48.5211C113.128 48.3369 112.914 48.2379 112.654 48.2243H109.748C109.489 48.2379 109.274 48.3369 109.103 48.5211C108.933 48.7053 108.807 48.9168 108.725 49.1555C108.65 49.3875 108.612 49.6263 108.612 49.8719C108.612 50.1175 108.65 50.3597 108.725 50.5984C108.8 50.8372 108.923 51.0487 109.093 51.2329C109.27 51.4103 109.489 51.5058 109.748 51.5194H112.654Z" fill="white"/>
<path d="M117.587 52.3688C117.546 52.7781 117.321 52.9999 116.911 53.034C116.72 53.034 116.553 52.9726 116.41 52.8498C116.274 52.7201 116.205 52.5598 116.205 52.3688V47.5182C116.212 47.3272 116.284 47.1703 116.42 47.0475C116.557 46.9178 116.72 46.853 116.911 46.853H121.199C121.24 46.853 121.281 46.8564 121.322 46.8633H121.383C121.861 46.8769 122.253 46.9861 122.56 47.1907C122.867 47.3954 123.089 47.6308 123.225 47.8968C123.362 48.1561 123.43 48.4187 123.43 48.6848C123.43 48.9577 123.362 49.2272 123.225 49.4932C123.096 49.7525 122.874 49.9844 122.56 50.1891C122.253 50.3938 121.861 50.5029 121.383 50.5166H119.582C119.637 50.8577 119.749 51.1101 119.92 51.2738C120.084 51.4376 120.292 51.5194 120.544 51.5194H122.755C122.946 51.5263 123.103 51.5979 123.225 51.7343C123.355 51.8708 123.42 52.0345 123.42 52.2255C123.413 52.4097 123.345 52.5666 123.215 52.6963C123.092 52.8191 122.939 52.8839 122.755 52.8907H120.36C119.855 52.8975 119.398 52.6997 118.989 52.2972C118.579 51.8947 118.33 51.4171 118.242 50.8645C118.119 50.2505 118.058 49.906 118.058 49.8309C118.058 49.6399 118.122 49.4796 118.252 49.35C118.388 49.2135 118.552 49.1453 118.743 49.1453H121.445C121.574 49.1385 121.68 49.1112 121.762 49.0634C121.851 49.0089 121.915 48.9509 121.956 48.8895C121.997 48.8212 122.018 48.753 122.018 48.6848C122.018 48.6166 121.997 48.5518 121.956 48.4904C121.915 48.4221 121.851 48.3642 121.762 48.3164C121.68 48.2618 121.574 48.2311 121.445 48.2243H117.853C117.675 48.2311 117.587 48.3198 117.587 48.4904V52.3688Z" fill="white"/>
<path d="M124.341 47.5387C124.341 47.3476 124.406 47.1873 124.535 47.0577C124.672 46.9212 124.835 46.853 125.026 46.853H130.982C131.173 46.853 131.337 46.9178 131.473 47.0475C131.603 47.1839 131.668 47.3476 131.668 47.5387C131.668 47.7297 131.6 47.8934 131.463 48.0299C131.334 48.1595 131.173 48.2243 130.982 48.2243H128.7V52.3688C128.659 52.7781 128.434 52.9999 128.025 53.034C127.834 53.034 127.667 52.9726 127.523 52.8498C127.387 52.7201 127.319 52.5598 127.319 52.3688V48.2243H125.026C124.835 48.2243 124.675 48.1561 124.545 48.0196C124.409 47.89 124.341 47.7297 124.341 47.5387Z" fill="white"/>
</svg>
