<svg width="202" height="68" viewBox="0 0 202 68" fill="none" xmlns="http://www.w3.org/2000/svg">
<path fill-rule="evenodd" clip-rule="evenodd" d="M32.3462 68C23.6414 67.7004 17.0634 65.6534 12.6121 61.859C8.16074 57.9648 4.9459 53.6211 2.96754 48.8282C0.989181 43.9354 0 38.9927 0 34C0 28.8076 0.939722 23.815 2.81917 19.022C4.79753 14.1292 8.01236 9.78561 12.4637 5.99119C17.0139 2.09692 22.7512 0.0998532 29.6754 0H86.0587C88.8284 0 91.153 0.998532 93.0324 2.99559C95.0108 4.8928 96 7.23935 96 10.0352C96 12.8311 95.0108 15.2276 93.0324 17.2247C91.153 19.1219 88.8284 20.0705 86.0587 20.0705H29.0819C27.2025 20.0705 25.5703 20.8693 24.1855 22.467C22.8006 23.9648 21.762 25.7621 21.0695 27.859C20.476 29.8561 20.1793 31.8532 20.1793 33.8502C20.1793 35.9471 20.476 38.044 21.0695 40.141C21.762 42.138 22.8006 43.9354 24.1855 45.533C25.5703 47.0308 27.2025 47.8297 29.0819 47.9295H86.0587C88.8284 47.9295 91.153 48.928 93.0324 50.9251C95.0108 52.8223 96 55.1689 96 57.9648C96 60.7606 95.0108 63.1072 93.0324 65.0044C91.153 67.0015 88.8284 68 86.0587 68H32.3462ZM36.2832 42.9238C34.0488 42.8477 32.3604 42.3271 31.2178 41.3623C30.0752 40.3721 29.25 39.2676 28.7422 38.0488C28.2344 36.8047 27.9805 35.5479 27.9805 34.2783C27.9805 32.958 28.2217 31.6885 28.7041 30.4697C29.2119 29.2256 30.0371 28.1211 31.1797 27.1562C32.3477 26.166 33.8203 25.6582 35.5977 25.6328H47.9375C49.7148 25.6582 51.1748 26.166 52.3174 27.1562C53.4854 28.1211 54.3105 29.2256 54.793 30.4697C55.3008 31.6885 55.5547 32.958 55.5547 34.2783C55.5547 35.5479 55.3008 36.8047 54.793 38.0488C54.2852 39.2676 53.46 40.3721 52.3174 41.3623C51.1748 42.3271 49.4863 42.8477 47.252 42.9238H36.2832ZM35.4453 30.7363C34.9629 30.7363 34.5439 30.9395 34.1885 31.3457C33.833 31.7266 33.5664 32.1836 33.3887 32.7168C33.2363 33.2246 33.1602 33.7324 33.1602 34.2402C33.1602 34.7734 33.2363 35.3066 33.3887 35.8398C33.5664 36.3477 33.833 36.8047 34.1885 37.2109C34.5439 37.5918 34.9629 37.7949 35.4453 37.8203H48.0898C48.5723 37.7949 48.9912 37.5918 49.3467 37.2109C49.7021 36.8047 49.9561 36.3477 50.1084 35.8398C50.2861 35.3066 50.375 34.7734 50.375 34.2402C50.375 33.7324 50.2861 33.2246 50.1084 32.7168C49.9561 32.1836 49.7021 31.7266 49.3467 31.3457C48.9912 30.9395 48.5723 30.7363 48.0898 30.7363H35.4453ZM72.084 25.0615C73.4043 25.0615 74.6992 25.2139 75.9688 25.5186C77.2637 25.8232 78.4951 26.2803 79.6631 26.8896C80.8311 27.4736 81.8594 28.2607 82.748 29.251C83.6621 30.2412 84.1572 31.4219 84.2334 32.793V34.3926V40.9053C84.0811 42.4287 83.2432 43.2539 81.7197 43.3809C81.0088 43.3809 80.3867 43.1523 79.8535 42.6953C79.3457 42.2129 79.0918 41.6162 79.0918 40.9053V39.2295V33.9736C79.041 33.1865 78.7363 32.5391 78.1777 32.0312C77.6445 31.498 77.0352 31.0791 76.3496 30.7744C75.6895 30.4697 74.9912 30.2412 74.2549 30.0889C73.5439 29.9365 72.8203 29.8604 72.084 29.8604C71.3477 29.8604 70.6113 29.9365 69.875 30.0889C69.1641 30.2412 68.4658 30.4697 67.7803 30.7744C67.1201 31.0791 66.5107 31.498 65.9521 32.0312C65.4189 32.5391 65.127 33.1865 65.0762 33.9736V39.2295V40.9053C64.9492 42.4287 64.124 43.2539 62.6006 43.3809C61.8896 43.3809 61.2676 43.1523 60.7344 42.6953C60.2266 42.2129 59.9727 41.6162 59.9727 40.9053V34.3926V32.793C60.0488 31.4219 60.5312 30.2412 61.4199 29.251C62.3086 28.2607 63.3369 27.4736 64.5049 26.8896C65.6729 26.2803 66.8916 25.8232 68.1611 25.5186C69.4561 25.2139 70.7637 25.0615 72.084 25.0615ZM101.22 25.0615C102.54 25.0615 103.835 25.2139 105.104 25.5186C106.399 25.8232 107.631 26.2803 108.799 26.8896C109.967 27.4736 110.995 28.2607 111.884 29.251C112.798 30.2412 113.293 31.4219 113.369 32.793V34.3926V40.9053C113.217 42.4287 112.379 43.2539 110.855 43.3809C110.145 43.3809 109.522 43.1523 108.989 42.6953C108.481 42.2129 108.228 41.6162 108.228 40.9053V39.2295V33.9736C108.177 33.1865 107.872 32.5391 107.313 32.0312C106.78 31.498 106.171 31.0791 105.485 30.7744C104.825 30.4697 104.127 30.2412 103.391 30.0889C102.68 29.9365 101.956 29.8604 101.22 29.8604C100.483 29.8604 99.7471 29.9365 99.0107 30.0889C98.2998 30.2412 97.6016 30.4697 96.916 30.7744C96.2559 31.0791 95.6465 31.498 95.0879 32.0312C94.5547 32.5391 94.2627 33.1865 94.2119 33.9736V39.2295V40.9053C94.085 42.4287 93.2598 43.2539 91.7363 43.3809C91.0254 43.3809 90.4033 43.1523 89.8701 42.6953C89.3623 42.2129 89.1084 41.6162 89.1084 40.9053V34.3926V32.793C89.1846 31.4219 89.667 30.2412 90.5557 29.251C91.4443 28.2607 92.4727 27.4736 93.6406 26.8896C94.8086 26.2803 96.0273 25.8232 97.2969 25.5186C98.5918 25.2139 99.8994 25.0615 101.22 25.0615ZM126.014 42.9238C123.779 42.8477 122.091 42.3271 120.948 41.3623C119.806 40.3721 118.98 39.2676 118.473 38.0488C117.965 36.8047 117.711 35.5479 117.711 34.2783C117.711 32.958 117.952 31.6885 118.435 30.4697C118.942 29.2256 119.768 28.1211 120.91 27.1562C122.078 26.166 123.551 25.6582 125.328 25.6328H139.801C140.512 25.6328 141.108 25.874 141.591 26.3564C142.099 26.8135 142.353 27.3721 142.353 28.0322C142.353 28.7178 142.099 29.3018 141.591 29.7842C141.108 30.2412 140.512 30.4697 139.801 30.4697H125.557C124.998 30.4697 124.503 30.6602 124.071 31.041C123.665 31.4219 123.36 31.917 123.157 32.5264C122.979 33.1357 122.891 33.7324 122.891 34.3164C122.891 34.9512 122.979 35.5732 123.157 36.1826C123.36 36.792 123.665 37.2871 124.071 37.668C124.503 38.0234 124.998 38.2139 125.557 38.2393H139.801C140.512 38.2393 141.108 38.4678 141.591 38.9248C142.099 39.3818 142.353 39.9277 142.353 40.5625C142.353 41.2227 142.099 41.7812 141.591 42.2383C141.108 42.6953 140.512 42.9238 139.801 42.9238H126.014ZM141.896 34.2021C141.896 34.6846 141.68 35.1035 141.248 35.459C140.867 35.7891 140.385 35.9541 139.801 35.9541H127.347C126.763 35.9541 126.268 35.7891 125.861 35.459C125.455 35.1035 125.252 34.6846 125.252 34.2021C125.252 33.7451 125.455 33.3389 125.861 32.9834C126.268 32.6533 126.763 32.4883 127.347 32.4883H139.801C140.385 32.4883 140.88 32.666 141.286 33.0215C141.692 33.3516 141.896 33.7451 141.896 34.2021ZM154.464 42.9238C152.229 42.8477 150.541 42.3271 149.398 41.3623C148.256 40.3721 147.431 39.2676 146.923 38.0488C146.415 36.8047 146.161 35.5479 146.161 34.2783C146.161 32.958 146.402 31.6885 146.885 30.4697C147.393 29.2256 148.218 28.1211 149.36 27.1562C150.528 26.166 152.001 25.6582 153.778 25.6328H168.251C168.962 25.6328 169.559 25.8867 170.041 26.3945C170.549 26.877 170.803 27.4736 170.803 28.1846C170.803 28.8955 170.549 29.5049 170.041 30.0127C169.559 30.4951 168.962 30.7363 168.251 30.7363H153.626C153.144 30.7363 152.725 30.9395 152.369 31.3457C152.014 31.7266 151.747 32.1836 151.569 32.7168C151.417 33.2246 151.341 33.7324 151.341 34.2402C151.341 34.7734 151.417 35.3066 151.569 35.8398C151.747 36.3477 152.014 36.8047 152.369 37.2109C152.725 37.5918 153.144 37.7949 153.626 37.8203H168.251C168.962 37.8203 169.559 38.0742 170.041 38.582C170.549 39.0645 170.803 39.6611 170.803 40.3721C170.803 41.083 170.549 41.6797 170.041 42.1621C169.559 42.6699 168.962 42.9238 168.251 42.9238H154.464ZM183.066 19.8438C183.777 19.8438 184.387 20.085 184.895 20.5674C185.402 21.0244 185.669 21.6084 185.694 22.3193V25.6328H198.644C199.354 25.6328 199.964 25.874 200.472 26.3564C200.954 26.8643 201.195 27.4736 201.195 28.1846C201.195 28.8955 200.941 29.5049 200.434 30.0127C199.951 30.4951 199.354 30.7363 198.644 30.7363H185.694V31.498C185.669 32.5391 185.732 33.5039 185.885 34.3926C186.062 35.2559 186.469 36.0303 187.104 36.7158C187.738 37.4014 188.538 37.7695 189.503 37.8203H198.796C199.507 37.8457 200.091 38.1123 200.548 38.6201C201.03 39.1279 201.271 39.7373 201.271 40.4482C201.246 41.1338 200.992 41.7178 200.51 42.2002C200.053 42.6572 199.481 42.8984 198.796 42.9238H188.208C186.431 42.8223 184.958 42.2256 183.79 41.1338C182.647 40.0166 181.822 38.6582 181.314 37.0586C180.832 35.459 180.578 33.7578 180.553 31.9551V30.7363H176.173C175.462 30.7363 174.865 30.4824 174.383 29.9746C173.875 29.4922 173.621 28.8955 173.621 28.1846C173.621 27.4736 173.862 26.877 174.345 26.3945C174.853 25.8867 175.462 25.6328 176.173 25.6328H180.553V22.3193C180.578 21.6338 180.832 21.0625 181.314 20.6055C181.797 20.123 182.381 19.8691 183.066 19.8438ZM112.796 54.7902C112.796 55.0104 112.717 55.1952 112.56 55.3446C112.411 55.5018 112.226 55.5804 112.006 55.5804H107.288C107.139 55.5883 107.013 55.6237 106.911 55.6866C106.816 55.7416 106.746 55.8085 106.698 55.8871C106.651 55.9579 106.628 56.0326 106.628 56.1112C106.628 56.1898 106.651 56.2684 106.698 56.3471C106.746 56.4178 106.816 56.4847 106.911 56.5476C107.013 56.6026 107.139 56.6341 107.288 56.6419H110.638C111.188 56.6577 111.64 56.7874 111.994 57.0312C112.356 57.267 112.611 57.5422 112.761 57.8568C112.918 58.1634 112.997 58.4779 112.997 58.8003C112.997 59.1148 112.918 59.4293 112.761 59.7439C112.603 60.0505 112.348 60.3257 111.994 60.5695C111.64 60.8053 111.188 60.9233 110.638 60.9233H110.567C110.52 60.9311 110.473 60.9351 110.425 60.9351H105.967C105.747 60.9351 105.558 60.8604 105.401 60.711C105.252 60.5537 105.177 60.365 105.177 60.1449C105.177 59.9247 105.256 59.7399 105.413 59.5905C105.562 59.4333 105.747 59.3546 105.967 59.3546H110.708C110.858 59.3625 110.98 59.335 111.074 59.2721C111.176 59.2092 111.251 59.1384 111.298 59.0598C111.345 58.9733 111.369 58.8868 111.369 58.8003C111.369 58.7453 111.345 58.6706 111.298 58.5762C111.251 58.474 111.176 58.3914 111.074 58.3285C110.98 58.2656 110.858 58.2302 110.708 58.2224H107.359C106.808 58.2067 106.352 58.0808 105.991 57.845C105.637 57.6091 105.381 57.3417 105.224 57.0429C105.075 56.7363 105 56.4257 105 56.1112C105 55.8045 105.079 55.5018 105.236 55.203C105.393 54.8964 105.649 54.6251 106.003 54.3892C106.356 54.1533 106.808 54.0275 107.359 54.0118H107.43C107.477 54.0039 107.524 54 107.571 54H112.006C112.226 54 112.411 54.0786 112.56 54.2359C112.717 54.3853 112.796 54.5701 112.796 54.7902ZM115.91 60.3336C115.863 60.8053 115.603 61.0609 115.131 61.1002C114.911 61.1002 114.719 61.0294 114.553 60.8879C114.396 60.7385 114.318 60.5537 114.318 60.3336V54.7666C114.325 54.5465 114.408 54.3656 114.565 54.2241C114.722 54.0747 114.911 54 115.131 54H120.085C120.777 54.0236 121.3 54.1769 121.654 54.46C122.007 54.7352 122.263 55.0497 122.42 55.4035C122.578 55.7574 122.656 56.1151 122.656 56.4768C122.656 56.8542 122.578 57.2199 122.42 57.5737C122.271 57.9275 122.015 58.246 121.654 58.529C121.3 58.8042 120.848 58.9379 120.297 58.93H117.325C117.105 58.93 116.92 58.8514 116.771 58.6942C116.614 58.5448 116.535 58.36 116.535 58.1398C116.535 57.9197 116.61 57.7349 116.759 57.5855C116.916 57.4282 117.105 57.3496 117.325 57.3496H120.368C120.517 57.3496 120.639 57.3024 120.734 57.2081C120.836 57.1058 120.911 56.9918 120.958 56.866C121.005 56.7324 121.029 56.5987 121.029 56.465C121.029 56.3392 121.005 56.2134 120.958 56.0876C120.911 55.9539 120.836 55.8399 120.734 55.7456C120.639 55.6433 120.517 55.5883 120.368 55.5804H116.216C116.012 55.5883 115.91 55.6905 115.91 55.8871V60.3336ZM131.313 54.3774C130.999 54.1337 130.641 54.0079 130.24 54H126.124C125.573 54.0236 125.113 54.232 124.744 54.6251C124.382 55.0104 124.123 55.4546 123.965 55.9579C123.808 56.4532 123.729 56.9604 123.729 57.4793C123.729 57.9983 123.804 58.5094 123.954 59.0126C124.111 59.5158 124.374 59.9601 124.744 60.3454C125.113 60.7306 125.573 60.9351 126.124 60.9587H130.24C130.79 60.9272 131.246 60.7188 131.608 60.3336C131.978 59.9483 132.241 59.508 132.398 59.0126C132.563 58.5094 132.646 57.9983 132.646 57.4793C132.646 57.0862 132.599 56.7009 132.504 56.3235C132.41 55.9461 132.265 55.5883 132.068 55.2502C131.879 54.9121 131.628 54.6212 131.313 54.3774ZM130.582 59.048C130.385 59.2524 130.138 59.3625 129.839 59.3782H126.489C126.191 59.3625 125.939 59.2524 125.734 59.048C125.538 58.8357 125.396 58.5919 125.31 58.3167C125.223 58.0415 125.18 57.7624 125.18 57.4793C125.18 57.1963 125.223 56.9211 125.31 56.6537C125.404 56.3785 125.55 56.1348 125.746 55.9225C125.943 55.7102 126.191 55.5962 126.489 55.5804H129.839C130.138 55.5962 130.385 55.7102 130.582 55.9225C130.779 56.1348 130.92 56.3785 131.007 56.6537C131.101 56.9211 131.148 57.1963 131.148 57.4793C131.148 57.7624 131.105 58.0415 131.018 58.3167C130.932 58.5919 130.786 58.8357 130.582 59.048ZM135.524 60.3572C135.477 60.8289 135.217 61.0845 134.745 61.1238C134.525 61.1238 134.333 61.053 134.167 60.9115C134.01 60.7621 133.932 60.5773 133.932 60.3572V54.7666C133.939 54.5465 134.022 54.3656 134.179 54.2241C134.336 54.0747 134.525 54 134.745 54H139.687C139.734 54 139.782 54.0039 139.829 54.0118H139.899C140.45 54.0275 140.902 54.1533 141.256 54.3892C141.61 54.6251 141.865 54.8964 142.022 55.203C142.18 55.5018 142.258 55.8045 142.258 56.1112C142.258 56.4257 142.18 56.7363 142.022 57.0429C141.873 57.3417 141.618 57.6091 141.256 57.845C140.902 58.0808 140.45 58.2067 139.899 58.2224H137.824C137.887 58.6155 138.016 58.9065 138.213 59.0952C138.402 59.2839 138.641 59.3782 138.932 59.3782H141.48C141.7 59.3861 141.881 59.4687 142.022 59.6259C142.172 59.7832 142.247 59.9719 142.247 60.192C142.239 60.4043 142.16 60.5852 142.011 60.7346C141.869 60.8761 141.692 60.9508 141.48 60.9587H138.72C138.138 60.9665 137.611 60.7385 137.14 60.2746C136.668 59.8107 136.381 59.2603 136.279 58.6234C136.137 57.9157 136.066 57.5187 136.066 57.4322C136.066 57.212 136.141 57.0272 136.29 56.8778C136.448 56.7206 136.636 56.6419 136.857 56.6419H139.97C140.12 56.6341 140.242 56.6026 140.336 56.5476C140.438 56.4847 140.513 56.4178 140.56 56.3471C140.607 56.2684 140.631 56.1898 140.631 56.1112C140.631 56.0326 140.607 55.9579 140.56 55.8871C140.513 55.8085 140.438 55.7416 140.336 55.6866C140.242 55.6237 140.12 55.5883 139.97 55.5804H135.83C135.626 55.5883 135.524 55.6905 135.524 55.8871V60.3572ZM143.532 54.2359C143.383 54.3853 143.308 54.5701 143.308 54.7902C143.308 55.0104 143.387 55.1952 143.544 55.3446C143.693 55.5018 143.878 55.5804 144.098 55.5804H146.74V60.3572C146.74 60.5773 146.819 60.7621 146.976 60.9115C147.141 61.053 147.334 61.1238 147.554 61.1238C148.026 61.0845 148.285 60.8289 148.332 60.3572V55.5804H150.963C151.183 55.5804 151.368 55.5057 151.517 55.3563C151.674 55.1991 151.753 55.0104 151.753 54.7902C151.753 54.5701 151.678 54.3814 151.529 54.2241C151.371 54.0747 151.183 54 150.963 54H144.098C143.878 54 143.689 54.0786 143.532 54.2359Z" fill="#22B357"/>
</svg>
